<svg xmlns="http://www.w3.org/2000/svg" xmlns:xlink="http://www.w3.org/1999/xlink" version="1.1" x="0px" y="0px" viewBox="0 0 512 512" enable-background="new 0 0 512 512" xml:space="preserve"><g><path d="M443.5,199.8v-37.5H406V106h-56.3V68.5h-37.5V106h-37.5V68.5h-37.5V106h-37.5V68.5h-37.5V106H106v56.2H68.5v37.5H106v37.5   H68.5v37.5H106v37.5H68.5v37.5H106V406h56.3v37.5h37.5V406h37.5v37.5h37.5V406h37.5v37.5h37.5V406H406v-56.3h37.5v-37.5H406v-37.5   h37.5v-37.5H406v-37.5H443.5z M368.5,368.5h-225v-225h225V368.5z"></path><path d="M199.8,331h112.5c10.4,0,18.8-8.4,18.8-18.8V245c0-5-2-9.7-5.5-13.3l-45.3-45.3c-3.5-3.5-8.3-5.5-13.3-5.5h-67.2   c-10.4,0-18.8,8.4-18.8,18.8v112.5C181,322.6,189.4,331,199.8,331z"></path></g></svg>