<svg xmlns="http://www.w3.org/2000/svg" xmlns:xlink="http://www.w3.org/1999/xlink" version="1.1" x="0px" y="0px" viewBox="0 0 512 512" enable-background="new 0 0 512 512" xml:space="preserve"><g><path d="M256,218.5c-10.3,0-18.8,8.4-18.8,18.8c0,10.3,8.4,18.8,18.8,18.8c10.3,0,18.8-8.4,18.8-18.8   C274.8,226.9,266.3,218.5,256,218.5z"></path><path d="M368.5,68.5h-225c-10.4,0-18.8,8.4-18.8,18.8v337.5c0,10.4,8.4,18.8,18.8,18.8h225c10.4,0,18.8-8.4,18.8-18.8V87.3   C387.3,76.9,378.9,68.5,368.5,68.5z M162.3,87.3c10.4,0,18.8,8.4,18.8,18.8s-8.4,18.8-18.8,18.8s-18.8-8.4-18.8-18.8   S151.9,87.3,162.3,87.3z M162.3,424.8c-10.4,0-18.8-8.4-18.8-18.8s8.4-18.8,18.8-18.8S181,395.6,181,406S172.6,424.8,162.3,424.8z    M256,331c-19.1,0-36.8-5.8-51.6-15.6l27.4-27.4c7.3-7.3,7.3-19.2,0-26.5c-7.3-7.3-19.2-7.3-26.5,0l-27.4,27.4   c-9.8-14.8-15.6-32.5-15.6-51.6c0-51.8,42-93.8,93.8-93.8s93.8,42,93.8,93.8C349.8,289,307.8,331,256,331z M349.8,424.8   c-10.4,0-18.8-8.4-18.8-18.8s8.4-18.8,18.8-18.8s18.8,8.4,18.8,18.8S360.1,424.8,349.8,424.8z M349.8,124.8   c-10.4,0-18.8-8.4-18.8-18.8s8.4-18.8,18.8-18.8s18.8,8.4,18.8,18.8S360.1,124.8,349.8,124.8z"></path></g></svg>