<?xml version="1.0" encoding="UTF-8" standalone="no"?>
<svg width="166px" height="36px" viewBox="0 0 166 36" version="1.1" xmlns="http://www.w3.org/2000/svg" xmlns:xlink="http://www.w3.org/1999/xlink">
    <!-- Generator: Sketch 3.7.1 (28215) - http://www.bohemiancoding.com/sketch -->
    <title>Logo</title>
    <desc>Created with Sketch.</desc>
    <defs></defs>
    <g id="Page-1" stroke="none" stroke-width="1" fill="none" fill-rule="evenodd">
        <g id="IC-Logo" transform="translate(-221.000000, -108.000000)">
            <g id="Logo" transform="translate(221.000000, 108.000000)">
                <text id="Intercity" font-family="WorkSans-Bold, Work Sans" font-size="30" font-weight="bold" fill="#2F2F2F">
                    <tspan x="38.385" y="28">Intercity</tspan>
                </text>
                <g id="Page-1" fill="#000000">
                    <path d="M18.2967761,18.00192 C18.2967761,20.34 14.7032239,20.34 14.7032239,18.00192 C14.7032239,15.66384 18.2967761,15.66384 18.2967761,18.00192" id="Fill-1"></path>
                    <path d="M16.5,21.76896 C18.6277612,21.76896 20.3614925,20.07936 20.3614925,18.00192 C20.3614925,15.9264 18.6297313,14.23488 16.5,14.23488 C14.3702687,14.23488 12.6385075,15.92448 12.6385075,18.00192 C12.6385075,20.07744 14.3702687,21.76896 16.5,21.76896 L16.5,21.76896 Z M16.5,15.36 C17.9928806,15.36 19.2069851,16.54512 19.2069851,18.00192 C19.2069851,19.45872 17.9928806,20.64384 16.5,20.64384 C15.0071194,20.64384 13.7930149,19.45872 13.7930149,18.00192 C13.7930149,16.54512 15.0071194,15.36 16.5,15.36 L16.5,15.36 Z" id="Fill-2"></path>
                    <path d="M32.6670448,10.29024 C32.6670448,9.01296 31.601194,7.97424 30.2930149,7.97424 C29.6157761,7.97424 29.0060149,8.25552 28.5730746,8.70192 L18.7105075,3.1464 C18.8124627,2.88768 18.8740299,2.61024 18.8740299,2.31744 C18.8740299,1.03872 17.8101493,0 16.5,0 C15.1898507,0 14.1259701,1.03872 14.1259701,2.31552 C14.1259701,2.60832 14.1875373,2.88576 14.2894925,3.14448 L4.42692537,8.7 C3.99398507,8.2536 3.38422388,7.97232 2.70698507,7.97232 C1.39683582,7.97232 0.332955224,9.01104 0.332955224,10.28832 C0.332955224,11.37024 1.10032836,12.2736 2.12973134,12.52704 L2.12973134,23.52384 C1.10032836,23.7768 0.332955224,24.68064 0.332955224,25.76256 C0.332955224,27.03936 1.39880597,28.07808 2.70698507,28.07808 C3.34383582,28.07808 3.92108955,27.82896 4.3481194,27.4296 L14.2412239,33.00192 C14.1737463,33.21744 14.1259701,33.44256 14.1259701,33.68064 C14.1259701,34.96128 15.1898507,36 16.5,36 C17.8101493,36 18.8740299,34.96128 18.8740299,33.68256 C18.8740299,33.44448 18.8262537,33.22128 18.7587761,33.00384 L28.6518806,27.43104 C29.0789104,27.8304 29.6561642,28.08 30.2930149,28.08 C31.6031642,28.08 32.6670448,27.04128 32.6670448,25.76448 C32.6670448,24.68256 31.8996716,23.77872 30.8682985,23.52576 L30.8682985,12.52896 C31.8996716,12.27552 32.6670448,11.37168 32.6670448,10.29024 L32.6670448,10.29024 Z M30.2930149,9.09744 C30.9663134,9.09744 31.5145075,9.63168 31.5145075,10.28832 C31.5145075,10.74 31.2529701,11.13024 30.8722388,11.3304 C30.7914627,11.3736 30.7047761,11.40576 30.6161194,11.43168 C30.6067612,11.43552 30.5969104,11.43744 30.5875522,11.44128 C30.4929851,11.46576 30.3969403,11.47872 30.2949851,11.47872 C30.1930299,11.47872 30.0964925,11.46384 30.0024179,11.44128 C29.9930597,11.43936 29.983209,11.43552 29.9733582,11.4336 C29.885194,11.40768 29.7985075,11.37552 29.7177313,11.33232 C29.6985224,11.3232 29.6773433,11.31168 29.6601045,11.30256 C29.4926418,11.2032 29.3542388,11.06448 29.2542537,10.90128 C29.2503134,10.8936 29.2463731,10.8864 29.2424328,10.88064 C29.2000746,10.80768 29.165597,10.72896 29.1385075,10.64832 C29.1345672,10.6368 29.1311194,10.62384 29.1271791,10.61232 C29.1000896,10.52256 29.0848209,10.42896 29.0808806,10.33104 C29.0808806,10.31808 29.0769403,10.30512 29.0769403,10.29168 L29.0769403,10.28448 C29.0769403,10.18896 29.092209,10.0968 29.1153582,10.00896 C29.1212687,9.9864 29.1311194,9.96384 29.1365373,9.94128 C29.1577164,9.87552 29.1828358,9.81168 29.2153433,9.75168 C29.2271642,9.7296 29.2384925,9.70896 29.2522836,9.68832 C29.2907015,9.62448 29.3365075,9.56448 29.3847761,9.50976 C29.3946269,9.49872 29.4039851,9.48768 29.4138358,9.47616 C29.4793433,9.40896 29.5502687,9.34896 29.6310448,9.29808 C29.8177164,9.17232 30.0467463,9.09744 30.2930149,9.09744 L30.2930149,9.09744 Z M28.5730746,24.17616 L24.3421791,21.85488 L24.3421791,14.31936 L28.5942537,11.90448 C28.8961791,12.2064 29.2828209,12.42192 29.713791,12.52896 L29.713791,23.52576 C29.2714925,23.63424 28.8789403,23.8632 28.5730746,24.17616 L28.5730746,24.17616 Z M17.0772537,31.44384 L17.0772537,26.60064 L23.7688657,22.82976 L28.0091194,25.15872 C27.9554328,25.3536 27.9170149,25.55424 27.9170149,25.7664 C27.9170149,26.01552 27.9687313,26.25168 28.0440896,26.4768 L18.1682239,32.04 C17.8717164,31.75104 17.4949254,31.54704 17.0772537,31.44384 L17.0772537,31.44384 Z M14.829806,32.03808 L4.95591045,26.47488 C5.03126866,26.25024 5.08298507,26.0136 5.08298507,25.76448 C5.08298507,25.55232 5.04456716,25.35168 4.98891045,25.1568 L9.22916418,22.82976 L15.9227463,26.60064 L15.9227463,31.44384 C15.5050746,31.54704 15.1282836,31.75104 14.829806,32.03808 L14.829806,32.03808 Z M3.28423881,23.52576 L3.28423881,12.52896 C3.71520896,12.42192 4.10185075,12.2064 4.40377612,11.90448 L8.65585075,14.31936 L8.65585075,21.85296 L4.42692537,24.17424 C4.1210597,23.86128 3.72850746,23.63424 3.28423881,23.52576 L3.28423881,23.52576 Z M16.5,10.55232 L23.1896418,14.32128 L23.1896418,21.85872 L16.5,25.62576 L9.81035821,21.85872 L9.81035821,14.32128 L16.5,10.55232 Z M28.0209403,10.9296 L23.7649254,13.3464 L17.0772537,9.57744 L17.0772537,4.55616 C17.4387761,4.46832 17.7638507,4.29744 18.0391791,4.06704 L28.0110896,9.68448 C27.957403,9.87936 27.9189851,10.08 27.9189851,10.29024 C27.9189851,10.51296 27.9613433,10.72512 28.0209403,10.9296 L28.0209403,10.9296 Z M15.2799851,2.31552 C15.2799851,1.65936 15.8267015,1.12512 16.5,1.12512 C17.1732985,1.12512 17.7200149,1.65936 17.7200149,2.31552 C17.7200149,2.40384 17.708194,2.48832 17.6909552,2.5704 C17.6697761,2.66448 17.6352985,2.7504 17.5949104,2.83296 C17.5870299,2.85024 17.5776716,2.86512 17.5678209,2.88192 C17.5274328,2.95296 17.4831045,3.01872 17.4294179,3.08064 C17.4215373,3.09024 17.4136567,3.09936 17.4042985,3.10896 C17.2713134,3.25104 17.1043433,3.36384 16.9137313,3.43104 C16.7846866,3.47808 16.6462836,3.50832 16.5,3.50832 C16.3537164,3.50832 16.2153134,3.47808 16.0862687,3.43296 C15.8956567,3.36576 15.7286866,3.25296 15.5957015,3.1104 C15.5878209,3.10128 15.5804328,3.09168 15.5725522,3.08256 C15.5188657,3.02064 15.4725672,2.95296 15.4321791,2.88384 C15.4223284,2.86704 15.4129701,2.85168 15.4050896,2.83488 C15.3627313,2.75232 15.3282537,2.66448 15.3090448,2.5704 C15.2898358,2.49024 15.2799851,2.40384 15.2799851,2.31552 L15.2799851,2.31552 Z M14.9608209,4.06704 C15.2361493,4.29744 15.5612239,4.4664 15.9227463,4.55616 L15.9227463,9.57744 L9.23507463,13.34448 L4.9790597,10.92768 C5.04062687,10.7232 5.08298507,10.51104 5.08298507,10.28832 C5.08298507,10.07808 5.04456716,9.87552 4.9908806,9.68256 L14.9608209,4.06704 Z M1.48746269,10.29024 C1.48746269,9.6336 2.03368657,9.09936 2.70698507,9.09936 C2.95325373,9.09936 3.18228358,9.17232 3.37289552,9.29424 C3.45170149,9.34512 3.52459701,9.40512 3.59010448,9.47232 C3.59995522,9.48384 3.60931343,9.49488 3.61916418,9.5064 C3.66891045,9.56064 3.71323881,9.62064 3.75165672,9.68448 C3.76544776,9.70512 3.77677612,9.72768 3.78810448,9.74832 C3.81913433,9.80832 3.84622388,9.87168 3.86740299,9.93744 C3.87479104,9.96 3.88267164,9.98256 3.88858209,10.00512 C3.91123881,10.09296 3.92502985,10.18512 3.927,10.28064 L3.927,10.28832 C3.927,10.30128 3.9230597,10.31424 3.9230597,10.32768 C3.9191194,10.42512 3.9018806,10.51872 3.87676119,10.60896 C3.8728209,10.62 3.8688806,10.63296 3.86543284,10.64448 C3.83834328,10.72704 3.80386567,10.80384 3.76150746,10.8768 C3.75756716,10.88448 3.75362687,10.89168 3.74968657,10.89744 C3.64970149,11.06064 3.50932836,11.19744 3.34186567,11.29872 C3.32265672,11.30976 3.30344776,11.31936 3.28423881,11.32896 C3.20346269,11.37168 3.11677612,11.40384 3.0281194,11.42976 C3.01876119,11.4336 3.00891045,11.43552 2.99955224,11.43936 C2.90498507,11.46384 2.8089403,11.4768 2.70698507,11.4768 C2.60502985,11.4768 2.50898507,11.46192 2.41441791,11.43936 C2.4050597,11.43744 2.39520896,11.4336 2.38585075,11.43168 C2.29719403,11.40576 2.21050746,11.3736 2.12973134,11.3304 C1.749,11.13168 1.48746269,10.74192 1.48746269,10.29024 L1.48746269,10.29024 Z M1.48746269,25.7664 C1.48746269,25.31424 1.749,24.92448 2.12973134,24.72384 C2.21050746,24.68064 2.29522388,24.64896 2.38585075,24.62256 C2.39520896,24.61872 2.4050597,24.6168 2.41441791,24.61296 C2.50898507,24.58896 2.60502985,24.57552 2.70698507,24.57552 C2.8089403,24.57552 2.90498507,24.5904 2.99955224,24.61296 C3.00891045,24.61488 3.01876119,24.61872 3.0281194,24.62256 C3.11677612,24.64896 3.20346269,24.68064 3.28423881,24.72384 C3.30935821,24.7368 3.33595522,24.74832 3.35910448,24.7632 C3.52065672,24.86256 3.65364179,25.00128 3.75165672,25.16064 C3.75953731,25.17552 3.76692537,25.1904 3.77677612,25.20384 C3.81322388,25.27104 3.84425373,25.34064 3.86740299,25.4136 C3.8728209,25.4304 3.87873134,25.44768 3.88267164,25.46448 C3.90779104,25.55232 3.9230597,25.6464 3.92502985,25.74192 C3.92502985,25.7496 3.927,25.7568 3.927,25.76448 C3.927,25.80768 3.9191194,25.84704 3.91320896,25.88832 C3.8688806,26.29488 3.61719403,26.64 3.2591194,26.82 C3.09165672,26.90448 2.90498507,26.9568 2.70501493,26.9568 C2.03368657,26.9568 1.48746269,26.42256 1.48746269,25.7664 L1.48746269,25.7664 Z M16.5,34.87488 C15.8267015,34.87488 15.2785075,34.34064 15.2785075,33.68256 C15.2785075,33.65232 15.2858955,33.62448 15.2878657,33.59424 C15.3188955,33.18576 15.5612239,32.83488 15.9094478,32.64576 C15.9133881,32.64384 15.9168358,32.64192 15.9227463,32.63808 C16.0035224,32.59488 16.090209,32.5632 16.1788657,32.5368 C16.1882239,32.53296 16.1980746,32.53104 16.2074328,32.5296 C16.302,32.50512 16.3980448,32.49168 16.5,32.49168 C16.6019552,32.49168 16.698,32.50704 16.7925672,32.5296 C16.8019254,32.53104 16.8117761,32.53488 16.8211343,32.53872 C16.909791,32.56512 16.9964776,32.5968 17.0772537,32.64 C17.081194,32.64192 17.0851343,32.64384 17.0885821,32.64576 C17.4387761,32.83488 17.6796269,33.18576 17.7101642,33.59424 C17.7121343,33.62448 17.7200149,33.65232 17.7200149,33.68256 C17.7200149,34.34064 17.1732985,34.87488 16.5,34.87488 L16.5,34.87488 Z M31.5125373,25.7664 C31.5125373,26.42256 30.9643433,26.9568 30.2910448,26.9568 C30.0910746,26.9568 29.904403,26.90448 29.7369403,26.82 C29.3788657,26.64 29.1271791,26.29488 29.0828507,25.88832 C29.0789104,25.84704 29.0695522,25.80576 29.0695522,25.76448 C29.0695522,25.7568 29.0710299,25.7496 29.0710299,25.74192 C29.073,25.6464 29.0887612,25.55424 29.1133881,25.46448 C29.1173284,25.44768 29.125209,25.4304 29.1291493,25.4136 C29.1522985,25.34064 29.1828358,25.2696 29.2192836,25.20384 C29.2271642,25.18896 29.2345522,25.1736 29.244403,25.16064 C29.3424179,25.00128 29.475403,24.86448 29.6369552,24.7632 C29.6601045,24.74832 29.6867015,24.7368 29.7118209,24.72384 C29.792597,24.68064 29.8773134,24.64896 29.9679403,24.62256 C29.9772985,24.61872 29.9871493,24.6168 29.9965075,24.61296 C30.0910746,24.58896 30.1871194,24.57552 30.2890746,24.57552 C30.3910299,24.57552 30.4870746,24.5904 30.5816418,24.61296 C30.591,24.61488 30.6008507,24.61872 30.610209,24.62256 C30.6988657,24.64896 30.7855522,24.68064 30.8663284,24.72384 C31.251,24.92448 31.5125373,25.31232 31.5125373,25.7664 L31.5125373,25.7664 Z" id="Fill-3"></path>
                </g>
            </g>
        </g>
    </g>
</svg>