<svg xmlns="http://www.w3.org/2000/svg" xmlns:xlink="http://www.w3.org/1999/xlink" version="1.1" x="0px" y="0px" viewBox="0 0 512 512" enable-background="new 0 0 512 512" xml:space="preserve"><g><rect x="87.2" y="331" width="56.3" height="37.5"></rect><rect x="181" y="331" width="56.3" height="37.5"></rect><rect x="274.7" y="331" width="56.3" height="37.5"></rect><rect x="368.5" y="331" width="56.3" height="37.5"></rect><path d="M443.5,199.8v-56.3h-375v56.3c20.7,0,37.5,16.8,37.5,37.5s-16.8,37.5-37.5,37.5v37.6h375v-37.5   c-20.7,0-37.5-16.8-37.5-37.5S422.8,199.8,443.5,199.8z M162.2,274.8h-37.5V181h37.5V274.8z M237.3,274.8h-37.5V181h37.5V274.8z    M312.3,274.8h-37.5V181h37.5V274.8z M387.4,274.8h-37.5V181h37.5V274.8z"></path></g></svg>